<svg version="1" xmlns="http://www.w3.org/2000/svg" width="682.667" height="682.667" viewBox="0 0 512.000000 512.000000"><path d="M150.5 51.9c-23.6 5.6-36 30-35.9 70.6 0 17 1 26.7 5.2 49 1.2 6.5.9 7.8-2.3 8.7-6.5 2.1-20.3 7.2-25 9.3-2.7 1.3-7.2 3.3-10 4.5-8.3 3.7-20.5 11-28.4 16.8-41.3 30.5-39.5 65.7 4.9 95.6 12.6 8.5 22.9 13.6 46.5 23.1 1.1.5 2.2.9 2.5 1 .3 0 3.6 1.1 7.3 2.4 5.7 1.9 6.7 2.6 6.2 4.2-.4 1-.8 2.9-1.1 4.1-.2 1.3-.6 3.4-.9 4.8-.6 3.2-2.2 12.8-3.2 20-.4 3-.8 14.5-.8 25.5 0 27.2 3 40.3 12.3 54.4 9.3 13.9 26.3 20.3 45.4 16.9 17.9-3.2 41.5-15.2 63.3-32.3 8.1-6.4 10.1-8.1 16.6-14.2l3.6-3.4 3.4 3.1c6.9 6.4 21.7 18 30.9 24.2 32.6 22 61.4 28.5 81 18.2 13.1-6.8 21.1-20.8 25.5-44.4 1.1-5.5 1.3-35.8.4-43-2.1-17-2.8-21.8-3.5-24.2-.8-2.9-1.6-7.1-1.8-9.6-.1-2.2 1-2.8 11.9-6.7 18.4-6.6 26.3-10.1 40.5-18.3 37.7-21.7 51.9-48.3 39.2-73.7-2.8-5.6-10.4-15.5-15.4-20-7.6-6.8-22.2-16.6-31.8-21.3-1.4-.6-3.2-1.6-4-2.2-2.6-1.7-22-9.6-32.1-13l-9.6-3.3 1.4-6.6c10.6-50.6 5.9-91.7-12.7-110.2-6.7-6.8-12.9-9.8-22.8-11.2-20-3-45.2 6.6-75.2 28.7-5.2 3.8-9.7 7.2-10 7.5-1.3 1.6-14.9 13.1-15.4 13.1-.4 0-5.3-3.9-10.9-8.6-37.6-31.7-70.4-45.3-95.2-39.5zm28 22.8c14 4.3 30.5 14.1 49.1 29.1 15.1 12.2 14.5 10.9 8.1 17.8-8.3 9-16.5 18.8-25.6 30.6-4.5 6-9 10.8-9.9 10.9-4 .2-21.7 2.7-31.7 4.4-3.8.7-17.4 3.6-24.2 5.2-2.5.6-3.2-1.4-5.7-16.2-6.7-40.9-2.1-73 11.8-82 5.9-3.9 15.3-3.8 28.1.2zM360 72.8c8.6 3.6 13.8 14.8 16.6 35.2.5 3.7.5 28.1 0 31-.3 1.4-.7 4.5-.9 7-.9 8-4.5 27-5.2 27-.2 0-3.4-.7-7.2-1.6-3.7-.9-7.9-1.8-9.3-2-1.4-.2-3.6-.7-5-.9-5.7-1.2-6.8-1.4-17-3-1.4-.2-6.7-.9-11.8-1.6l-9.3-1.2-8.1-10.6c-4.5-5.8-8.4-10.8-8.7-11.1-.4-.3-1.9-2.1-3.5-4-2.9-3.6-15.1-17.3-17.4-19.7-1.5-1.5-.9-2.9 3.1-6.2 1.6-1.4 3.4-3 4.1-3.6.9-.9 12-9.7 18.1-14.3 10.3-7.8 29.2-17.5 39.5-20.1 7.9-2 17.7-2.2 22-.3zm-94 68.3c8.6 9.6 15.3 17.6 15.7 18.8.2.3-11.2.6-25.2.6s-25.5-.2-25.5-.4c0-.4 8.9-11.4 12.9-16.1 7.9-9 11.7-12.9 12.6-12.6.6.1 4.8 4.5 9.5 9.7zm23 41.3c5.2.4 9.8 1 10.2 1.2 3.1 1.9 27.1 41.9 36.7 61.1l6.1 12.2-7.9 15.3c-9.4 18.3-23.4 42.7-27.9 48.3-.4.5-2.1 3.1-3.7 5.7-1.9 3.1-3.7 4.8-5 4.8-1.1 0-6.7.3-12.5.7-13 .9-44.3.9-57 0-5.2-.3-10.5-.6-11.7-.6-2.3-.1-5-3.5-14.2-18-7.9-12.4-14.4-23.7-23.2-40.7l-7.9-15.2 7.9-15.3c10.6-20.9 32-56.5 35-58.3.4-.3 6.1-.8 12.7-1.2 6.5-.4 12-.7 12.1-.8.6-.5 41.7.2 50.3.8zm-105.1 7.3c-1.3 2.1-3.4 5.6-4.8 7.8-3.1 4.9-3.2 5.1-11.9 20.9-8.3 15.1-6.4 16.1-14.7-8.4-4.3-12.7-5-15.6-3.9-16.3 1.7-.9 24.8-5.6 31.4-6.4 2.5-.3 4.7-.7 4.9-.9 1.4-1.4 1 .1-1 3.3zm151.1-2.2c16.6 2.8 30 6 30 7.2 0 1.5-6.9 23.2-7.8 24.8-.4.5-.7 1.2-.7 1.5 0 .3-.9 2.7-1.9 5.3l-1.8 4.9-4.2-7.9c-6.4-11.9-10.6-19.2-14.1-24.8-1.7-2.7-4.1-6.7-5.4-8.7l-2.2-3.7 2.8.5c1.5.3 3.9.7 5.3.9zm81 23c23.5 10.4 43.1 25 49.1 36.6 3.4 6.5 3.2 14-.5 20.3-6.5 11.1-22.8 23.6-44 33.6-11.6 5.5-33.2 13.7-34 12.9-.2-.2-2.7-7.3-5.4-15.7-2.8-8.4-5.8-16.7-6.5-18.5-.8-1.7-3.2-7.6-5.5-13l-4.1-9.8 6.4-15.7c3.4-8.7 8.2-21.7 10.5-28.8l4.2-13.1 10.7 3.7c5.8 2.1 14.4 5.4 19.1 7.5zm-285 2.7c2.4 7.3 7.2 20.2 10.6 28.5l6.2 15.3-5 12.2c-5.4 13.2-14.8 40.1-14.8 42.3 0 2.6-2.1 2.6-10.3-.1-25-8.3-49.8-22.2-62.4-35.1-10.2-10.5-12.4-20.3-6.8-30 3.4-5.9 12.7-15.1 20.3-20.1 3.1-2 5.9-4 6.2-4.3 2.8-3.3 44.8-21.6 50.1-21.8 1.1-.1 2.7 3.6 5.9 13.1zm35.7 81.8c4.7 8.4 10.6 18.5 15 25.2 5.3 8.4 6.2 8.2-16.2 3.8-5.6-1.1-8.5-1.7-13.3-2.6-1.9-.4-3.6-1.2-3.9-1.9-.4-1.2 6.4-22.9 10.2-32.3l1.7-4.2 2 3.7c1.1 2.1 3.2 5.8 4.5 8.3zm191.6 2c2.5 6.9 5.2 14.9 6 17.7 1.6 5.2 1.6 5.3-.6 5.8-9.9 2.3-15.8 3.5-19.2 4.1-2.2.3-7 1.1-10.7 1.8-7.7 1.5-7.6 2-1.1-8.1 3.9-6.2 7.4-12.3 14.5-25.5 2.9-5.4 5.5-9.4 5.9-9 .4.4 2.7 6.3 5.2 13.2zM157 343.9c5.3 1.1 11.3 2.3 13.5 2.6 2.2.3 6.3 1 9 1.5 2.8.5 7.5 1.2 10.5 1.5 9.5 1.1 12.4 1.5 12.5 1.8 1 1.6 11.4 15 16.4 21.2 9.1 11 10.8 13 17.2 19.8l5.6 6-4.1 3.6c-2.3 2-4.5 4.1-5.1 4.7-.5.7-5.8 4.8-11.6 9.2-11.3 8.5-23.8 16.2-33.3 20.5-13.6 6.3-29 8-35.7 4.1-8.1-4.7-13.5-17-15.4-34.9-.6-5.1-.6-24.8 0-30 1.3-12 1.7-15.4 2.6-19.3.5-2.3 1.2-5.9 1.5-8 1-6.8 1.4-7.5 4.3-6.9 1.4.4 6.9 1.5 12.1 2.6zm216.3 6.8c3.3 19 3.9 24.7 4.1 39.2.4 27.6-6.2 46.7-17.7 51-4.1 1.6-14 1.3-21.1-.5-7.7-1.9-23.6-9.6-34.1-16.4-7.4-4.8-22.9-16.9-29.8-23.1l-2.9-2.7 3.9-4.3c2.2-2.4 5.5-6 7.2-7.9 4.8-5.2 22.8-27.6 25.4-31.5 1.2-1.9 2.9-3.5 3.7-3.6.8 0 2.4-.2 3.5-.4s4.3-.7 7-1c7.4-.9 16.6-2.3 21-3.1 7.7-1.5 17.6-3.5 20.5-4.3 7.6-1.9 7.4-2.1 9.3 8.6zm-91.3 3.2c0 .9-16.5 20.2-23.9 28.1-1.2 1.2-2.1.6-6.9-4.5-6.4-7-20.2-23.2-20.2-23.7 0-.2 11.5-.4 25.5-.3 14 0 25.5.2 25.5.4z"/><path d="M247.6 214.7c-19.2 3.9-33.3 20.4-34.1 40-.6 12.8 3.5 23.4 12.5 32.5 8.1 8 16 11.7 27.3 12.5 13.8 1 24-2.8 33.8-12.6 8.7-8.8 13-19.8 12.4-32.4-1.3-26.5-25.6-45.3-51.9-40z"/></svg>